<?xml version="1.0" encoding="UTF-8" standalone="no"?>
<!-- Created with Inkscape (http://www.inkscape.org/) -->

<svg
   xmlns:dc="http://purl.org/dc/elements/1.1/"
   xmlns:cc="http://creativecommons.org/ns#"
   xmlns:rdf="http://www.w3.org/1999/02/22-rdf-syntax-ns#"
   xmlns:svg="http://www.w3.org/2000/svg"
   xmlns="http://www.w3.org/2000/svg"
   xmlns:sodipodi="http://sodipodi.sourceforge.net/DTD/sodipodi-0.dtd"
   xmlns:inkscape="http://www.inkscape.org/namespaces/inkscape"
   width="121.70834mm"
   height="121.70834mm"
   viewBox="0 0 121.70834 121.70834"
   version="1.1"
   id="svg323"
   sodipodi:docname="favicon.svg"
   inkscape:version="0.92.4 (5da689c313, 2019-01-14)">
  <defs
     id="defs317" />
  <sodipodi:namedview
     id="base"
     pagecolor="#ffffff"
     bordercolor="#666666"
     borderopacity="1.0"
     inkscape:pageopacity="0.0"
     inkscape:pageshadow="2"
     inkscape:zoom="11.313709"
     inkscape:cx="305.39777"
     inkscape:cy="152.04831"
     inkscape:document-units="mm"
     inkscape:current-layer="layer1"
     showgrid="true"
     inkscape:window-width="1920"
     inkscape:window-height="991"
     inkscape:window-x="-9"
     inkscape:window-y="-9"
     inkscape:window-maximized="1"
     fit-margin-top="0"
     fit-margin-left="0"
     fit-margin-right="0"
     fit-margin-bottom="0">
    <inkscape:grid
       type="xygrid"
       id="grid4075" />
  </sodipodi:namedview>
  <metadata
     id="metadata320">
    <rdf:RDF>
      <cc:Work
         rdf:about="">
        <dc:format>image/svg+xml</dc:format>
        <dc:type
           rdf:resource="http://purl.org/dc/dcmitype/StillImage" />
        <dc:title></dc:title>
      </cc:Work>
    </rdf:RDF>
  </metadata>
  <g
     inkscape:label="Layer 1"
     inkscape:groupmode="layer"
     id="layer1"
     transform="translate(-55.562492,-78.90773)">
    <g
       id="g336"
       transform="translate(0.26726925,0.26726957)">
      <path
         style="fill:#f7f7f7;stroke-width:0.26458335"
         d="M 55.562492,139.7619 V 78.90773 h 60.854168 60.85417 v 60.85417 60.85417 H 116.41666 55.562492 Z"
         id="path368"
         inkscape:connector-curvature="0" />
      <path
         style="fill:#f6cfbe;stroke-width:0.26458335"
         d="M 55.562492,139.7619 V 78.90773 h 60.854168 60.85417 v 60.85417 60.85417 H 116.41666 55.562492 Z m 50.006248,23.41563 v -4.36563 h 2.24896 2.24896 v -1.98437 -1.98438 h -6.35 -6.349999 v 6.35 6.35 h 4.101039 4.10104 z m 17.19792,-4.274 v -4.40628 l -3.21654,0.17295 -3.21654,0.17295 H 115.31679 114.3 v 4.23333 4.23334 h 4.23333 4.23333 z m 8.46667,0.17295 v -4.23333 H 129.11666 127 v 4.23333 4.23334 h 2.11666 2.11667 z m 0,-49.2125 v -2.11667 h -1.98438 -1.98437 v 2.11667 2.11667 h 1.98437 1.98438 z"
         id="path366"
         inkscape:connector-curvature="0" />
      <path
         style="fill:#f7d76f;stroke-width:0.26458335"
         d="M 55.562492,139.7619 V 78.90773 h 60.854168 60.85417 v 60.85417 60.85417 H 116.41666 55.562492 Z m 50.065848,23.48177 0.0727,-4.29948 2.18281,-0.0768 2.18281,-0.0768 v -2.10597 -2.10596 h -6.35 -6.349999 v 6.48229 6.48229 h 4.094489 4.09449 z m 17.13832,-4.34014 v -4.40628 l -3.21654,0.17295 -3.21654,0.17295 H 115.31679 114.3 v 4.23333 4.23334 h 4.23333 4.23333 z m 8.46667,0.17295 v -4.23333 H 129.11666 127 v 4.23333 4.23334 h 2.11666 2.11667 z M 110.06666,139.7619 v -2.11667 h 2.11667 2.11667 v -2.11666 -2.11667 h 12.83229 12.83229 v -2.11011 -2.11012 l -4.29948,-0.0727 -4.29948,-0.0727 -0.0768,-2.18281 -0.0769,-2.18281 h -1.97368 -1.97367 v 2.24896 2.24896 h -2.24896 -2.24896 v -2.24896 -2.24896 H 120.65 118.53333 v 2.24896 2.24896 H 116.41666 114.3 v -2.24896 -2.24896 h -2.11667 -2.11667 v 4.36562 4.36563 h -2.11667 -2.11666 v 1.01679 1.0168 l -0.17295,3.21654 -0.17295,3.21654 h 2.28961 2.28962 z m -8.73125,-8.46667 v -6.35 h -1.984374 -1.984375 v 3.13346 3.13346 l -0.172953,3.21654 -0.17295,3.21654 h 2.157325 2.157327 z m -8.466666,-4.23333 v -2.11667 H 90.752077 88.63541 v 2.11667 2.11667 h 2.116667 2.116667 z m 4.233334,-4.36563 v -1.98437 h -2.116667 -2.116667 v 1.98437 1.98438 h 2.116667 2.116667 z m 34.131252,-12.83229 v -2.11667 H 129.11666 127 v 2.11667 2.11667 h 2.11666 2.11667 z"
         id="path364"
         inkscape:connector-curvature="0" />
      <path
         style="fill:#7dd3c5;stroke-width:0.26458335"
         d="M 55.562492,139.7619 V 78.90773 h 60.854168 60.85417 v 60.85417 60.85417 H 116.41666 55.562492 Z m 41.539586,34.13125 v -2.11666 h -2.116667 -2.116667 v 2.11666 2.11667 h 2.116667 2.116667 z m 8.731252,-10.58333 v -4.23334 h 2.11666 2.11667 v -2.25366 -2.25366 l -6.41614,0.0708 -6.416151,0.0709 -0.07085,6.41615 -0.07085,6.41614 h 4.370331 4.37033 z m 16.93333,-4.40629 v -4.40628 l -3.21654,0.17295 -3.21654,0.17295 H 115.31679 114.3 v 4.23333 4.23334 h 4.23333 4.23333 z m 8.46667,0.17295 v -4.23333 H 129.11666 127 v 4.23333 4.23334 h 2.11666 2.11667 z m 8.73125,2.11667 v -2.11667 h -2.11667 -2.11666 v 2.11667 2.11667 h 2.11666 2.11667 z M 110.06666,139.7619 v -2.11667 h 2.11667 2.11667 v -2.11666 -2.11667 h 12.83229 12.83229 v -2.11011 -2.11012 l -4.29948,-0.0727 -4.29948,-0.0727 -0.0768,-2.18281 -0.0769,-2.18281 h -1.97368 -1.97367 v 2.24896 2.24896 h -2.24896 -2.24896 v -2.24896 -2.24896 H 120.65 118.53333 v 2.24896 2.24896 H 116.41666 114.3 v -2.24896 -2.24896 h -2.11667 -2.11667 v 4.36562 4.36563 h -2.11667 -2.11666 v 1.01679 1.0168 l -0.17295,3.21654 -0.17295,3.21654 h 2.28961 2.28962 z m -8.73125,-8.46667 v -6.35 h -1.984374 -1.984375 v 3.13346 3.13346 l -0.172953,3.21654 -0.17295,3.21654 h 2.157325 2.157327 z m -8.466666,-4.23333 v -2.11667 H 90.752077 88.63541 v 2.11667 2.11667 h 2.116667 2.116667 z m 4.233334,-4.36563 v -1.98437 h -2.116667 -2.116667 v 1.98437 1.98438 h 2.116667 2.116667 z m 34.131252,-12.83229 v -2.11667 H 129.11666 127 v -2.11666 -2.11667 h -2.11667 -2.11667 v 4.23333 4.23334 H 127 h 4.23333 z"
         id="path362"
         inkscape:connector-curvature="0" />
      <path
         style="fill:#f76f67;stroke-width:0.26458335"
         d="M 55.562492,139.7619 V 78.90773 h 60.854168 60.85417 v 60.85417 60.85417 H 116.41666 55.562492 Z m 41.539586,34.13125 v -2.11666 h -2.116667 -2.116667 v 2.11666 2.11667 h 2.116667 2.116667 z m 8.731252,-10.58333 v -4.23334 h 2.11666 2.11667 v -2.25366 -2.25366 l -6.41614,0.0708 -6.416151,0.0709 -0.07085,6.41615 -0.07085,6.41614 h 4.370331 4.37033 z M 127,165.42648 v -2.11666 h 2.08119 l 2.14945,-0.003 0.12189,-4.08742 0.19014,-4.09009 -0.17028,-0.27553 -0.17029,-0.27553 H 129.10105 127 v -1.98438 -1.98437 h -4.23334 -4.23333 v 1.98437 1.98438 H 116.41666 114.3 v 4.36562 4.36563 h 4.23333 4.23333 v 2.11666 2.11667 H 124.88333 127 Z m 12.96458,-4.23333 v -2.11667 h -2.11667 -2.11666 v 2.11667 2.11667 h 2.11666 2.11667 z M 110.06666,139.7619 v -2.11667 h 2.11667 2.11667 v -2.11666 -2.11667 h 12.83229 12.83229 v -2.11011 -2.11012 l -4.29948,-0.0727 -4.29948,-0.0727 -0.0768,-2.18281 -0.0769,-2.18281 h -1.97368 -1.97367 v 2.24896 2.24896 h -2.24896 -2.24896 v -2.24896 -2.24896 H 120.65 118.53333 v 2.24896 2.24896 H 116.41666 114.3 v -2.24896 -2.24896 h -2.11667 -2.11667 v 4.36562 4.36563 h -2.11667 -2.11666 v 1.01679 1.0168 l -0.17295,3.21654 -0.17295,3.21654 h 2.28961 2.28962 z m -8.73125,-8.46667 v -6.35 h -1.984374 -1.984375 v 3.13346 3.13346 l -0.172953,3.21654 -0.17295,3.21654 h 2.157325 2.157327 z m -8.466666,-4.23333 v -2.11667 H 90.752077 88.63541 v 2.11667 2.11667 h 2.116667 2.116667 z m 4.233334,-4.36563 v -1.98437 h -2.116667 -2.116667 v 1.98437 1.98438 h 2.116667 2.116667 z m 34.131252,-12.83229 v -2.11667 H 129.11666 127 v -2.11666 -2.11667 h -2.11667 -2.11667 v 4.23333 4.23334 H 127 h 4.23333 z"
         id="path360"
         inkscape:connector-curvature="0"
         sodipodi:nodetypes="cccccccccccccccccccccccccccccccccccccccccccccccccccccccccccccccccccccccccccccccccccccccccccccccccccccccccccccccccccccccccccccccccccccccccccccccccccccccc" />
      <path
         style="fill:#f9cd00;stroke-width:0.26458335"
         d="M 55.562492,139.7619 V 78.90773 h 60.854168 60.85417 v 60.85417 60.85417 H 116.41666 55.562492 Z m 41.539586,34.13125 v -2.11666 h -2.116667 -2.116667 v 2.11666 2.11667 h 2.116667 2.116667 z m 8.731252,-10.58333 v -4.23334 h 2.11666 2.11667 v -2.25366 -2.25366 l -6.41614,0.0708 -6.416151,0.0709 -0.07085,6.41615 -0.07085,6.41614 h 4.370331 4.37033 z M 127,165.42648 v -2.11666 h 2.08119 l 2.14945,-0.003 0.12189,-4.08742 0.19014,-4.09009 -0.17028,-0.27553 -0.17029,-0.27553 H 129.10105 127 v -1.98438 -1.98437 h -4.23334 -4.23333 v 1.98437 1.98438 H 116.41666 114.3 v 4.36562 4.36563 h 4.23333 4.23333 v 2.11666 2.11667 H 124.88333 127 Z m 12.96458,-4.23333 v -2.11667 h -2.11667 -2.11666 v 2.11667 2.11667 h 2.11666 2.11667 z m -21.43125,-17.19792 v -2.11666 H 114.3 110.06666 v -2.11667 -2.11667 h 2.11667 2.11667 v -2.11666 -2.11667 h 2.11666 2.11667 v 2.11667 2.11666 h 10.71562 10.71563 v -4.22678 -4.22678 l -4.29948,-0.0727 -4.29948,-0.0727 -0.0729,-4.16718 -0.0729,-4.16719 h -1.97094 -1.97093 l -0.0729,4.16719 -0.0729,4.16718 -2.18282,0.0769 -2.18281,0.0769 V 124.95603 120.712 H 120.65 118.53333 v 4.23333 4.23334 H 116.41666 114.3 v -4.23334 -4.23333 h -2.11667 -2.11667 v 2.11667 2.11666 h -2.11667 -2.11666 v 1.98438 1.98437 h 2.11666 2.11667 v 2.24896 2.24896 h -2.11667 -2.11666 v 2.11667 2.11666 h -2.24896 -2.24896 v -6.35 -6.35 h -1.984374 -1.984375 v 4.23334 4.23333 h -2.248958 -2.248959 v -4.23333 -4.23334 H 90.752077 88.63541 v 4.23334 4.23333 h 2.116667 2.116667 v 2.11667 2.11666 h 2.248959 2.248958 v 2.11667 2.11667 h 2.116667 2.116662 v 2.11666 2.11667 h 8.46667 8.46667 z M 97.102078,122.56398 v -2.11666 h -2.116667 -2.116667 v 2.11666 2.11667 h 2.116667 2.116667 z m 34.131252,-12.7 v -2.11667 h -1.98438 -1.98437 v -2.11666 -2.11667 h -2.24896 -2.24896 v 4.23333 4.23334 H 127 h 4.23333 z"
         id="path358"
         inkscape:connector-curvature="0"
         sodipodi:nodetypes="cccccccccccccccccccccccccccccccccccccccccccccccccccccccccccccccccccccccccccccccccccccccccccccccccccccccccccccccccccccccccccccccccccccccccccccccccccccccccccccccccccccccccccccc" />
      <path
         style="fill:#f63e6e;stroke-width:0.26458335"
         d="m 88.63541,178.25878 v -2.24896 h -2.116666 -2.116667 v -8.59896 -8.59896 h 2.116667 2.116666 v -2.11667 -2.11666 h 2.116667 2.116667 v -6.35 -6.35 H 90.752077 88.63541 v -2.11667 -2.11667 h -2.116666 -2.116667 v -6.48229 -6.48229 h 2.116667 2.116666 v -4.23333 -4.23334 h 2.116667 2.116667 v -2.11666 -2.11667 h 2.116667 2.116667 v -2.11667 -2.11667 h 2.116666 2.116666 v -2.11666 -2.11667 h 4.36563 4.36562 v -2.24896 -2.248956 h 10.71563 10.71562 v 2.248956 2.24896 h 2.11667 2.11667 v 4.23333 4.23334 h 2.11666 2.11667 v 2.11667 2.11666 h 2.11667 2.11666 v 2.24896 2.24896 h -6.35 -6.35 v 1.98437 1.98438 h 4.23334 4.23333 v 2.11667 2.11666 h 2.11667 2.11666 v 4.36563 4.36562 h -2.11666 -2.11667 v 2.11667 2.11667 h -2.11667 -2.11666 v 2.11666 2.11667 h -4.23334 -4.23333 v 2.11667 2.11666 h 2.11667 2.11666 v 2.11667 2.11667 h 6.35 6.35 v 2.11666 2.11667 h 2.11667 2.11667 v 4.36563 4.36562 h -2.11667 -2.11667 v 4.23334 4.23333 h -2.11666 -2.11667 v 2.24896 2.24896 h -4.36563 -4.36562 v -2.24896 -2.24896 H 129.11666 127 v -2.11667 -2.11666 h -2.11667 -2.11667 v 2.11666 2.11667 h -8.59896 -8.59896 v -2.11667 -2.11666 h -1.98437 -1.98438 v 2.11666 2.11667 h -2.116662 -2.116667 v 2.24896 2.24896 H 93.001036 88.63541 Z m 8.466668,-4.36563 v -2.11666 h -2.116667 -2.116667 v 2.11666 2.11667 h 2.116667 2.116667 z m 8.731252,-10.58333 v -4.23334 h 2.11666 2.11667 v -2.25366 -2.25366 l -6.41614,0.0708 -6.416151,0.0709 -0.07085,6.41615 -0.07085,6.41614 h 4.370331 4.37033 z M 127,165.42648 v -2.11666 h 2.08119 l 2.14945,-0.003 0.12189,-4.08742 0.19014,-4.09009 -0.17028,-0.27553 -0.17029,-0.27553 H 129.10105 127 v -1.98438 -1.98437 h -4.23334 -4.23333 v 1.98437 1.98438 H 116.41666 114.3 v 4.36562 4.36563 h 4.23333 4.23333 v 2.11666 2.11667 H 124.88333 127 Z m 12.96458,-4.23333 v -2.11667 h -2.11667 -2.11666 v 2.11667 2.11667 h 2.11666 2.11667 z m -21.43125,-17.19792 v -2.11666 H 114.3 110.06666 v -2.11667 -2.11667 h 2.11667 2.11667 v -2.11666 -2.11667 h 2.11666 2.11667 v 2.11667 2.11666 h 10.71562 10.71563 v -4.22678 -4.22678 l -4.29948,-0.0727 -4.29948,-0.0727 -0.0729,-4.16718 -0.0729,-4.16719 h -1.97094 -1.97093 l -0.0729,4.16719 -0.0729,4.16718 -2.18282,0.0769 -2.18281,0.0769 V 124.95603 120.712 H 120.65 118.53333 v 4.23333 4.23334 H 116.41666 114.3 v -4.23334 -4.23333 h -2.11667 -2.11667 v 2.11667 2.11666 h -2.11667 -2.11666 v 1.98438 1.98437 h 2.11666 2.11667 v 2.24896 2.24896 h -2.11667 -2.11666 v 2.11667 2.11666 h -2.24896 -2.24896 v -6.35 -6.35 h -1.984374 -1.984375 v 4.23334 4.23333 h -2.248958 -2.248959 v -4.23333 -4.23334 H 90.752077 88.63541 v 4.23334 4.23333 h 2.116667 2.116667 v 2.11667 2.11666 h 2.248959 2.248958 v 2.11667 2.11667 h 2.116667 2.116662 v 2.11666 2.11667 h 8.46667 8.46667 z M 97.102078,122.56398 v -2.11666 h -2.116667 -2.116667 v 2.11666 2.11667 h 2.116667 2.116667 z m 34.131252,-12.7 v -2.11667 h -1.98438 -1.98437 v -2.11666 -2.11667 h -2.24896 -2.24896 v 4.23333 4.23334 H 127 h 4.23333 z"
         id="path356"
         inkscape:connector-curvature="0"
         sodipodi:nodetypes="cccccccccccccccccccccccccccccccccccccccccccccccccccccccccccccccccccccccccccccccccccccccccccccccccccccccccccccccccccccccccccccccccccccccccccccccccccccccccccccccccccccccccccccccccccccccccccccccccccccccccccccccccccccccccccccccccccccccccccccccccccccccccccccccccccccccccccccccccccccccccccccccccccccc" />
      <path
         style="fill:#d59d2f;stroke-width:0.26458335"
         d="m 88.63541,178.25878 v -2.24896 h -2.116666 -2.116667 v -8.59896 -8.59896 h 2.116667 2.116666 v -2.11667 -2.11666 h 2.116667 2.116667 v -6.35 -6.35 H 90.752077 88.63541 v -2.11667 -2.11667 h -2.116666 -2.116667 v -6.48229 -6.48229 h 2.116667 2.116666 v -4.23333 -4.23334 h 2.116667 2.116667 v -2.11666 -2.11667 h 2.116667 2.116667 v -2.11667 -2.11667 h 2.116666 2.116666 v -2.11666 -2.11667 h 4.36563 4.36562 v -2.24896 -2.248956 h 10.71563 10.71562 v 2.248956 2.24896 h 2.11667 2.11667 v 4.23333 4.23334 h 2.11666 2.11667 v 2.11667 2.11666 h 2.11667 2.11666 v 2.24896 2.24896 h -6.35 -6.35 v 1.98437 1.98438 h 4.23334 4.23333 v 2.11667 2.11666 h 2.11667 2.11666 v 4.36563 4.36562 h -2.11666 -2.11667 v 2.11667 2.11667 h -2.11667 -2.11666 v 2.11666 2.11667 h -4.23334 -4.23333 v 2.11667 2.11666 h 2.11667 2.11666 v 2.11667 2.11667 h 6.35 6.35 v 2.11666 2.11667 h 2.11667 2.11667 v 4.36563 4.36562 h -2.11667 -2.11667 v 4.23334 4.23333 h -2.11666 -2.11667 v 2.24896 2.24896 h -4.36563 -4.36562 v -2.24896 -2.24896 H 129.11666 127 v -2.11667 -2.11666 h -2.11667 -2.11667 v 2.11666 2.11667 h -8.59896 -8.59896 v -2.11667 -2.11666 h -1.98437 -1.98438 v 2.11666 2.11667 h -2.116662 -2.116667 v 2.24896 2.24896 H 93.001036 88.63541 Z m 8.466668,-4.36563 v -2.11666 h -2.116667 -2.116667 v 2.11666 2.11667 h 2.116667 2.116667 z m 8.731252,-10.58333 v -4.23334 h 2.11666 2.11667 v -4.23333 -4.23333 h -2.24896 -2.24896 v 1.97765 1.97766 l -4.16718,0.0729 -4.167191,0.0729 -0.07085,6.41615 -0.07085,6.41614 h 4.370331 4.37033 z M 127,165.42648 v -2.11666 h 2.08119 l 2.14945,-0.003 0.12189,-4.08742 0.19014,-4.09009 -0.17028,-0.27553 -0.17029,-0.27553 H 129.10105 127 v -1.98438 -1.98437 h -4.23334 -4.23333 v 1.98437 1.98438 H 116.41666 114.3 v 4.36562 4.36563 h 4.23333 4.23333 v 2.11666 2.11667 H 124.88333 127 Z m 12.96458,-4.23333 v -2.11667 h -2.11667 -2.11666 v 2.11667 2.11667 h 2.11666 2.11667 z m -21.43125,-17.19792 v -2.11666 H 114.3 110.06666 v -2.11667 -2.11667 h 2.11667 2.11667 v -2.11666 -2.11667 h 2.11666 2.11667 v 2.11667 2.11666 h 10.71562 10.71563 v -4.22678 -4.22678 l -4.29948,-0.0727 -4.29948,-0.0727 -0.0729,-4.16718 -0.0729,-4.16719 h -1.97094 -1.97093 l -0.0729,4.16719 -0.0729,4.16718 -2.18282,0.0769 -2.18281,0.0769 V 124.95603 120.712 H 120.65 118.53333 v 4.23333 4.23334 H 116.41666 114.3 v -4.23334 -4.23333 h -2.11667 -2.11667 v 2.11667 2.11666 h -2.11667 -2.11666 v 1.98438 1.98437 h 2.11666 2.11667 v 2.24896 2.24896 h -2.11667 -2.11666 v 2.11667 2.11666 h -2.24896 -2.24896 v -6.35 -6.35 h -1.984374 -1.984375 v 4.23334 4.23333 h -2.248958 -2.248959 v -4.23333 -4.23334 H 90.752077 88.63541 v 4.23334 4.23333 h 2.116667 2.116667 v 2.11667 2.11666 h 2.248959 2.248958 v 2.11667 2.11667 h 2.116667 2.116662 v 2.11666 2.11667 h 8.46667 8.46667 z M 97.102078,122.56398 v -2.11666 h -2.116667 -2.116667 v 2.11666 2.11667 h 2.116667 2.116667 z m 8.731252,-8.46666 v -2.11667 h 2.11666 2.11667 v -2.11667 -2.11667 h 6.35 6.35 v 2.11667 2.11667 H 127 h 4.23333 v -4.23334 -4.23333 H 120.65 110.06666 v 2.11667 2.11666 h -4.23333 -4.23334 v 1.0168 1.01679 l -0.17295,3.21654 -0.17295,3.21654 h 2.28962 2.28962 z"
         id="path354"
         inkscape:connector-curvature="0"
         sodipodi:nodetypes="cccccccccccccccccccccccccccccccccccccccccccccccccccccccccccccccccccccccccccccccccccccccccccccccccccccccccccccccccccccccccccccccccccccccccccccccccccccccccccccccccccccccccccccccccccccccccccccccccccccccccccccccccccccccccccccccccccccccccccccccccccccccccccccccccccccccccccccccccccccccccccccccccccccccccccccccccccccccc" />
      <path
         style="fill:#3f7f97;stroke-width:0.26458335"
         d="m 88.63541,178.26533 v -2.25551 h -2.116666 -2.116667 v -8.59896 -8.59896 h 2.116667 2.116666 v -2.11667 -2.11666 h 2.116667 2.116667 v -6.35 -6.35 H 90.752077 88.63541 v -2.11667 -2.11667 h -2.116666 -2.116667 v -6.48229 -6.48229 h 2.116667 2.116666 v -4.23333 -4.23334 h 2.116667 2.116667 v -2.11666 -2.11667 h 2.116667 2.116667 v -2.11667 -2.11667 h 2.116666 2.116666 v -2.11666 -2.11667 h 4.36563 4.36562 v -2.25196 -2.251959 l 10.64948,0.06915 10.64948,0.06915 0.0768,2.182819 0.0768,2.18281 h 2.10597 2.10597 v 4.23333 4.23334 h 2.11666 2.11667 v 2.11667 2.11666 h 2.11667 2.11666 v 2.24896 2.24896 h -8.45995 -8.45994 l -0.0729,4.16719 -0.0729,4.16717 -2.18282,0.0769 -2.18281,0.0769 v -4.24403 -4.24403 h -2.1165 -2.11667 v 4.23333 4.23333 H 116.41666 114.3 v -4.23333 -4.23333 h -2.11667 -2.11667 v 2.11667 2.11666 h -2.11667 -2.11666 v 1.98438 1.98436 h 2.11666 2.11667 v 2.24896 2.24897 h -2.11667 -2.11666 v 2.11667 2.11666 h -2.24896 -2.24896 v -6.35 -6.35 h -2.116666 -2.116666 v 4.23334 4.23333 h -2.116667 -2.116667 v 2.11667 2.11666 h 2.248959 2.248958 v 2.11667 2.11667 h 1.984375 1.984374 v 2.11665 2.11667 h 8.59896 8.59896 v -2.11667 -2.11665 H 114.3 110.06666 v -2.11667 -2.11667 h 2.11667 2.11667 v -2.11666 -2.11667 h 2.11666 2.11667 v 2.11667 2.11666 h 10.71562 10.71563 v -4.23333 -4.23333 h 2.11667 2.11666 v 4.23333 4.23333 h -2.11666 -2.11667 v 2.11667 2.11667 h -2.11667 -2.11666 v 2.11665 2.11667 h -4.23334 -4.23333 v 2.10554 2.10553 l 2.05052,0.0773 2.05052,0.0773 0.0773,2.05052 0.0773,2.05053 h 6.33887 6.33887 v 2.11666 2.11666 h 2.11667 2.11667 v 4.36564 4.36562 h -2.11667 -2.11667 v 4.23334 4.23333 h -2.11666 -2.11667 v 2.2555 2.25551 l -4.29948,-0.0727 -4.29948,-0.0727 -0.0768,-2.18281 -0.0582,-2.18563 -2.12468,0.003 H 127 v -2.11667 -2.11666 h -2.11667 -2.11667 v 2.11666 2.11667 h -8.59896 -8.59896 v -2.11667 -2.11666 h -1.98437 -1.98438 v 2.11666 2.11667 H 99.494027 97.38806 l -0.07684,2.1828 -0.07685,2.18281 -4.299479,0.0727 -4.29948,0.0727 z m 8.466668,-4.37218 v -2.11666 h -2.116667 -2.116667 v 2.11666 2.11667 h 2.116667 2.116667 z m 8.731252,-10.58333 v -4.23334 h 2.11666 2.11667 v -4.23333 -4.23333 h -2.24896 -2.24896 v 1.97765 1.97766 l -4.16718,0.0729 -4.167191,0.0729 -0.07085,6.41615 -0.07085,6.41614 h 4.370331 4.37033 z M 127,165.42648 v -2.11666 h 2.08119 l 2.14945,-0.003 0.12189,-4.08742 0.19014,-4.09009 -0.17028,-0.27553 -0.17029,-0.27553 H 129.10105 127 v -1.98438 -1.98437 h -4.23334 -4.23333 v 1.98437 1.98438 H 116.41666 114.3 v 4.36562 4.36563 h 4.23333 4.23333 v 2.11666 2.11667 H 124.88333 127 Z m 12.96458,-4.23333 v -2.11667 h -2.11667 -2.11666 v 2.11667 2.11667 h 2.11666 2.11667 z M 92.868744,129.17857 v -4.23334 h 2.116667 2.116667 v -2.24896 -2.24895 h -2.116667 -2.116667 v 2.24895 2.24896 H 90.752077 88.63541 v 4.23334 4.23333 h 2.116667 2.116667 z m 12.964586,-15.08125 v -2.11667 h 2.11666 2.11667 v -2.11667 -2.11667 h 4.23334 4.23333 v 2.11667 2.11667 h 6.35 6.35 v -4.23334 -4.23333 H 120.65 110.06666 v 2.11667 2.11666 h -4.23333 -4.23334 v 1.0168 1.01679 l -0.17295,3.21654 -0.17295,3.21654 h 2.28962 2.28962 z m 25.66458,12.83229 v -1.98438 h 4.23334 4.23333 v 1.98438 1.98437 h -4.23333 -4.23334 z"
         id="path352"
         inkscape:connector-curvature="0"
         sodipodi:nodetypes="cccccccccccccccccccccccccccccccccccccccccccccccccccccccccccccccccccccccccccccccccccccccccccccccccccccccccccccccccccccccccccccccccccccccccccccccccccccccccccccccccccccccccccccccccccccccccccccccccccccccccccccccccccccccccccccccccccccccccccccccccccccccccccccccccccccccccccccccccccccccccccccccccccccccccccccccccccc" />
      <path
         style="fill:#72665e;stroke-width:0.26458335"
         d="m 88.63541,178.26533 v -2.25551 h -2.116666 -2.116667 v -8.59896 -8.59896 h 2.116667 2.116666 v -2.11667 -2.11666 h 2.116667 2.116667 v -6.35 -6.35 H 90.752077 88.63541 v -2.11667 -2.11667 h -2.116666 -2.116667 v -6.48229 -6.48229 h 2.116667 2.116666 v -4.23333 -4.23334 h 2.116667 2.116667 v -2.11666 -2.11667 h 2.116667 2.116667 v -2.11667 -2.11667 h 2.116666 2.116666 v -2.11666 -2.11667 h 4.36563 4.36562 v -2.25196 -2.251959 l 10.64948,0.06915 10.64948,0.06915 0.0768,2.182819 0.0768,2.18281 h 2.10597 2.10597 v 4.23333 4.23334 h 2.11666 2.11667 v 2.11667 2.11666 h 2.11667 2.11666 v 2.24896 2.24896 h -8.45995 -8.45994 l -0.0729,4.16719 -0.0729,4.16717 -2.18282,0.0769 -2.18281,0.0769 v -4.24403 -4.24403 h -2.1165 -2.11667 v 4.23333 4.23333 H 116.41666 114.3 v -4.23333 -4.23333 h -2.11667 -2.11667 v 2.11667 2.11666 h -2.11667 -2.11666 v 1.98438 1.98436 h 2.11666 2.11667 v 2.24896 2.24897 h -2.11667 -2.11666 v 2.11667 2.11666 h -2.24896 -2.24896 v -6.35 -6.35 h -2.116666 -2.116666 v 4.23334 4.23333 h -2.116667 -2.116667 v 2.11667 2.11666 h 2.248959 2.248958 v 2.11667 2.11667 h 1.984375 1.984374 v 2.11665 2.11667 h 8.59896 8.59896 v -2.11667 -2.11665 H 114.3 110.06666 v -2.11667 -2.11667 h 2.11667 2.11667 v -2.11666 -2.11667 h 2.11666 2.11667 v 2.11667 2.11666 h 10.71562 10.71563 v -4.23333 -4.23333 h 2.11667 2.11666 v 4.23333 4.23333 h -2.11666 -2.11667 v 2.11667 2.11667 h -2.11667 -2.11666 v 2.11665 2.11667 h -4.23334 -4.23333 v 2.10554 2.10553 l 2.05052,0.0773 2.05052,0.0773 0.0773,2.05052 0.0773,2.05053 h 6.33887 6.33887 v 2.11666 2.11666 h 2.11667 2.11667 v 4.36564 4.36562 h -2.11667 -2.11667 v 4.23334 4.23333 h -2.11666 -2.11667 v 2.2555 2.25551 l -4.29948,-0.0727 -4.29948,-0.0727 -0.0768,-2.18281 -0.0582,-2.18563 -2.12468,0.003 H 127 v -2.11667 -2.11666 h -2.11667 -2.11667 v 2.11666 2.11667 h -8.59896 -8.59896 v -2.11667 -2.11666 h -1.98437 -1.98438 v 2.11666 2.11667 H 99.494027 97.38806 l -0.07684,2.1828 -0.07685,2.18281 -4.299479,0.0727 -4.29948,0.0727 z m 8.466668,-4.37218 v -2.11666 h -2.116667 -2.116667 v 2.11666 2.11667 h 2.116667 2.116667 z m 25.664582,-4.23333 v -2.11667 h 2.24896 2.24896 v -2.11667 -2.11666 h 1.95232 l 2.01374,-0.003 0.12992,-4.07995 0.19134,-4.08263 -0.1749,-0.283 -0.1749,-0.28299 h -1.96876 -1.96876 v -1.96876 -1.96876 l -0.23283,-0.1439 -0.23282,-0.14389 -6.24947,0.17055 -6.24946,0.17055 v 4.19106 4.19106 h -2.11667 -2.11667 v -4.23333 -4.23333 h -2.24896 -2.24896 v 1.97765 1.97766 l -4.16718,0.0729 -4.167191,0.0729 -0.07085,6.41615 -0.07085,6.41614 h 4.370331 4.37033 v 2.11667 2.11667 h 8.46667 8.46666 z m -16.93333,-6.35 v -4.23334 h 2.11666 2.11667 v 4.23334 4.23333 h -2.11667 -2.11666 z m 34.13125,-2.11667 v -2.11667 h -2.11667 -2.11666 v 2.11667 2.11667 h 2.11666 2.11667 z M 92.868744,129.17857 v -4.23334 h 2.116667 2.116667 v -2.24896 -2.24895 h -2.116667 -2.116667 v 2.24895 2.24896 H 90.752077 88.63541 v 4.23334 4.23333 h 2.116667 2.116667 z m 12.964586,-15.08125 v -2.11667 h 2.11666 2.11667 v -2.11667 -2.11667 h 4.23334 4.23333 v 2.11667 2.11667 h 6.35 6.35 v -4.23334 -4.23333 H 120.65 110.06666 v 2.11667 2.11666 h -4.23333 -4.23334 v 1.0168 1.01679 l -0.17295,3.21654 -0.17295,3.21654 h 2.28962 2.28962 z m 25.66458,12.83229 v -1.98438 h 4.23334 4.23333 v 1.98438 1.98437 h -4.23333 -4.23334 z"
         id="path350"
         inkscape:connector-curvature="0"
         sodipodi:nodetypes="cccccccccccccccccccccccccccccccccccccccccccccccccccccccccccccccccccccccccccccccccccccccccccccccccccccccccccccccccccccccccccccccccccccccccccccccccccccccccccccccccccccccccccccccccccccccccccccccccccccccccccccccccccccccccccccccccccccccccccccccccccccccccccccccccccccccccccccccccccccccccccccccccccccccccccccccccccccccccc" />
      <path
         style="fill:#ae275e;stroke-width:0.26458335"
         d="m 88.63541,178.26533 v -2.25551 h -2.116666 -2.116667 v -8.59896 -8.59896 h 2.116667 2.116666 v -2.11667 -2.11666 h 2.116667 2.116667 v -6.35 -6.35 H 90.752077 88.63541 v -2.11667 -2.11667 h -2.116666 -2.116667 v -6.48229 -6.48229 h 2.116667 2.116666 v -4.23333 -4.23334 h 2.116667 2.116667 v -2.11666 -2.11667 h 2.116667 2.116667 v -2.11667 -2.11667 h 2.116666 2.116666 v -2.11666 -2.11667 h 4.36563 4.36562 v -2.25196 -2.251959 l 10.64948,0.06915 10.64948,0.06915 0.0768,2.182819 0.0768,2.18281 h 2.10597 2.10597 v 4.23333 4.23334 h 2.11666 2.11667 v 2.11667 2.11666 h 2.11667 2.11666 v 2.24896 2.24896 h -8.43881 -8.43881 l -0.1922,4.10104 -0.1922,4.10103 h -2.08462 -2.08461 v -4.10103 -4.10104 H 120.65 118.53333 v 4.10104 4.10103 H 116.41666 114.3 v -4.10103 -4.10104 h -2.11667 -2.11667 v 2.11667 2.11665 h -2.11667 -2.11666 v 1.98438 1.98437 h 2.11666 2.11667 v 2.24896 2.24897 h -2.24896 -2.24896 v 2.11667 2.11666 h -1.97967 -1.97967 l -0.0708,-6.41615 -0.0709,-6.41614 -2.039586,-0.0771 -2.039588,-0.0771 -0.07708,-2.03958 -0.07708,-2.03959 -2.182812,-0.0769 -2.182813,-0.0768 v 2.12736 2.12737 H 90.752077 88.63541 v 4.36562 4.36563 h 2.116667 2.116667 v -4.23333 -4.23333 h 2.116667 2.116667 v 4.23333 4.23333 h -2.116667 -2.116667 v 2.11667 2.11666 h 2.248959 2.248958 v 2.11667 2.11667 h 1.984375 1.984374 v 2.11666 2.11667 h 8.59896 8.59896 v -2.11667 -2.11666 H 114.3 110.06666 v -2.11667 -2.11667 h 2.11667 2.11667 v -2.11666 -2.11667 h 2.11666 2.11667 v 2.11667 2.11666 h 10.71562 10.71563 v -4.23333 -4.23333 h 2.11667 2.11666 v 4.23333 4.23333 h -2.11666 -2.11667 v 2.11667 2.11667 h -2.11667 -2.11666 v 2.11666 2.11667 H 131.36562 127 v 2.11667 2.11666 h -6.35 -6.35 v 4.23334 4.23333 h -2.11667 -2.11667 v -4.10104 -4.10104 h -2.24896 -2.24896 v 1.98437 1.98438 h -4.23333 -4.233332 v 8.59896 8.59896 h -2.116667 -2.116667 v 2.11666 2.11667 h 2.248959 2.248958 v -4.23333 -4.23334 h 4.101039 4.10104 v 2.11667 2.11667 h -1.98437 -1.98438 v 2.11666 2.11667 H 99.494027 97.38806 l -0.07684,2.18281 -0.07685,2.18281 -4.299479,0.0727 -4.29948,0.0727 z m 17.19792,-64.16801 v -2.11667 h 2.11666 2.11667 v -2.11667 -2.11667 h 4.23334 4.23333 v 2.11667 2.11667 h 6.48229 6.48229 v -1.0168 -1.01679 l -0.17295,-3.21654 -0.17295,-3.21654 h -10.54268 -10.54267 v 2.11667 2.11666 h -4.23333 -4.23334 v 1.0168 1.01679 l -0.17295,3.21654 -0.17295,3.21654 h 2.28962 2.28962 z m 25.57639,66.23403 -0.17639,-0.17639 v -2.07257 -2.07257 H 129.11666 127 v -2.11667 -2.11666 h -2.11667 -2.11667 v 2.11666 2.11667 H 114.3 105.83333 v -2.11667 -2.11666 h 8.46667 8.46666 v -2.11667 -2.11667 h 2.24896 2.24896 v -2.11667 -2.11666 h 2.11667 2.11666 v -4.19291 -4.19291 l 2.97657,-0.17151 2.97656,-0.17151 3.37344,-0.001 3.37343,-0.001 v 2.11666 2.11667 h 2.11667 2.11667 v 4.36563 4.36562 h -2.11667 -2.11667 v 4.23334 4.23333 h -2.11666 -2.11667 v 2.24896 2.24896 h -4.18924 -4.18923 z m 8.55486,-19.27049 v -2.24896 h -2.24896 -2.24896 v 2.24896 2.24896 h 2.24896 2.24896 z m -34.13125,2.24896 v -4.23334 h 2.11666 2.11667 v 4.23334 4.23333 h -2.11667 -2.11666 z m 21.43125,-10.71563 v -1.98437 h 1.98437 1.98438 v 1.98437 1.98438 h -1.98438 -1.98437 z m 4.23333,-25.66458 v -1.98438 h 4.23334 4.23333 v 1.98438 1.98437 h -4.23333 -4.23334 z"
         id="path348"
         inkscape:connector-curvature="0" />
      <path
         style="fill:#875716;stroke-width:0.26458335"
         d="m 88.63541,178.26533 v -2.25551 h -2.116666 -2.116667 v -8.59896 -8.59896 h 2.116667 2.116666 v -2.11667 -2.11666 h 2.116667 2.116667 v -6.35 -6.35 H 90.752077 88.63541 v -2.11667 -2.11667 h -2.116666 -2.116667 v -6.48229 -6.48229 h 2.116667 2.116666 v -4.23333 -4.23334 h 2.116667 2.116667 v -2.11666 -2.11667 h 2.116667 2.116667 v -2.11667 -2.11667 h 2.116666 2.116666 v -2.11666 -2.11667 h 4.36563 4.36562 v -2.25196 -2.251959 l 10.64948,0.06915 10.64948,0.06915 0.0768,2.182819 0.0768,2.18281 h 2.10597 2.10597 v 4.23333 4.23334 h 2.11666 2.11667 v 2.11667 2.11666 h 2.11667 2.11666 v 2.24896 2.24896 h -8.43881 -8.43881 l -0.1922,4.10104 -0.1922,4.10103 h -2.08462 -2.08461 v -4.10103 -4.10104 H 120.65 118.53333 v 4.10104 4.10103 H 116.41666 114.3 v -4.10103 -4.10104 h -2.11667 -2.11667 v 2.11667 2.11665 h -2.11667 -2.11666 v 1.98438 1.98437 h 2.11666 2.11667 v 2.24896 2.24897 h -2.24896 -2.24896 v 2.11667 2.11666 h -1.97967 -1.97967 l -0.0708,-6.41615 -0.0709,-6.41614 -2.050518,-0.0773 -2.050521,-0.0773 v -2.10554 -2.10553 h 4.101039 4.10104 v -2.11667 -2.11667 h 4.36563 4.36563 v -2.11666 -2.11667 h 8.59895 8.59896 v -4.23334 -4.23333 h -10.71562 -10.71563 v 2.11667 2.11666 h -4.36562 -4.36563 v 2.11667 2.11667 h -1.984374 -1.984375 v 2.11667 2.11666 h -2.248958 -2.248959 v 4.23334 4.23333 H 90.752077 88.63541 v 4.36561 4.36563 h 2.116667 2.116667 v -4.23333 -4.23333 h 2.116667 2.116667 v 4.23333 4.23333 h -2.116667 -2.116667 v 2.11667 2.11666 h 2.248959 2.248958 v 2.11667 2.11667 h 1.984375 1.984374 v 2.11666 2.11667 h -2.116666 -2.116666 v 12.83229 12.8323 h -2.116667 -2.116667 v 2.11666 2.11667 h 2.248959 2.248958 v -4.23333 -4.23334 h 4.101039 4.10104 v 2.11667 2.11667 h -1.98437 -1.98438 v 2.11666 2.11667 H 99.494027 97.38806 l -0.07684,2.18281 -0.07685,2.18281 -4.299479,0.0727 -4.29948,0.0727 z m 42.77431,2.06602 -0.17639,-0.17639 v -2.07257 -2.07257 H 129.11666 127 v -2.11667 -2.11666 h -2.11667 -2.11667 v 2.11666 2.11667 H 114.3 105.83333 v -2.11667 -2.11666 h 8.46667 8.46666 v -2.11667 -2.11667 h 2.24896 2.24896 v -2.11667 -2.11666 h 2.11667 2.11666 v -4.19291 -4.19291 l 2.97657,-0.17151 2.97656,-0.17151 3.37344,-0.001 3.37343,-0.001 v 2.11666 2.11667 h 2.11667 2.11667 v 4.36563 4.36562 h -2.11667 -2.11667 v 4.23334 4.23333 h -2.11666 -2.11667 v 2.24896 2.24896 h -4.18924 -4.18923 z m 8.55486,-19.27049 v -2.24896 h -2.24896 -2.24896 v 2.24896 2.24896 h 2.24896 2.24896 z m -34.13125,2.24896 v -4.23334 h 2.11666 2.11667 v 4.23334 4.23333 h -2.11667 -2.11666 z m 4.23333,-8.73125 v -4.23334 h -4.23333 -4.23334 v -2.11666 -2.11667 h 8.46667 8.46667 v -2.11667 -2.11666 H 114.3 110.06666 v -2.11667 -2.11667 h 2.11667 2.11667 v -2.11666 -2.11667 h 2.11666 2.11667 v 2.11667 2.11666 h 10.71562 10.71563 v -4.23333 -4.23333 h 2.11667 2.11666 v 4.23333 4.23333 h -2.11666 -2.11667 v 2.11667 2.11667 h -2.11667 -2.11666 v 2.11666 2.11667 H 131.36562 127 v 2.11667 2.11666 h -6.35 -6.35 v 4.23334 4.23333 h -2.11667 -2.11667 z m 17.19792,-1.98438 v -1.98437 h 1.98437 1.98438 v 1.98437 1.98438 h -1.98438 -1.98437 z m 4.23333,-25.66458 v -1.98438 h 4.23334 4.23333 v 1.98438 1.98437 h -4.23333 -4.23334 z"
         id="path346"
         inkscape:connector-curvature="0" />
      <path
         style="fill:#7b6608;stroke-width:0.26458335"
         d="m 88.63541,178.26533 v -2.25551 h -2.116666 -2.116667 v -8.59896 -8.59896 h 2.116667 2.116666 v -2.11667 -2.11666 h 2.116667 2.116667 v 2.24896 2.24895 H 90.752077 88.63541 v 8.46667 8.46667 h 4.365626 4.365625 v -2.11667 -2.11666 h 2.116667 2.116662 v 2.11666 2.11667 H 99.494027 97.38806 l -0.07684,2.18281 -0.07685,2.18281 -4.299479,0.0727 -4.29948,0.0727 z m 42.59523,2.23972 0.003,-0.35009 v -2.07257 c -9e-4,-0.69175 -0.003,-2.09909 -0.003,-2.07525 l -2.11398,0.003 H 127 v -2.11667 -2.11666 h -2.11667 -2.11667 v 2.11666 2.11667 H 114.3 105.83333 v -2.11667 -2.11666 h 8.46667 8.46666 v -2.11667 -2.11667 h 2.24896 2.24896 v -2.11667 -2.11666 h 2.11667 2.11666 v -4.19291 -4.19291 l 2.97657,-0.17151 2.97656,-0.17151 3.37344,-0.001 3.37343,-0.001 v 2.11666 2.11667 h 2.11667 2.11667 v 4.36563 4.36562 h -2.11667 -2.11667 v 4.23334 4.23333 h -2.11666 -2.11667 v 2.24896 2.24896 h -4.18924 -4.18923 z m 4.23602,-8.72856 v -4.23334 h -1.98437 -1.98438 v 4.23334 4.23333 h 1.98438 1.98437 z m 4.49792,-8.59896 v -4.36563 h -2.24896 -2.24896 v 1.14909 1.14908 l 0.2619,3.2554 v 3.175 l 2.16001,0.003 h 2.07601 z m -47.095836,6.48229 v -2.11667 h 2.116667 2.116667 v 2.11667 2.11667 h -2.116667 -2.116667 z m 34.395836,-17.06563 v -1.98437 h 1.98437 1.98438 v 1.98437 1.98438 h -1.98438 -1.98437 z m -4.49792,-4.36562 V 146.1119 H 120.65 118.53333 v -2.11667 -2.11666 H 114.3 110.06666 v -2.11667 -2.11667 h 2.11667 2.11667 v -2.11666 -2.11667 h 2.11666 2.11667 v 2.11667 2.11666 h 10.71562 10.71563 v 2.11667 2.11667 h -2.11667 -2.11666 v 2.11666 2.11667 H 131.36562 127 v 2.11667 2.11666 h -2.11667 -2.11667 z m -29.897916,-4.23334 v -2.11666 H 90.752077 88.63541 v -2.11667 -2.11667 h -2.116666 -2.116667 v -6.35 -6.35 h 2.116667 2.116666 v 4.23334 4.23333 h 2.116667 2.116667 v 2.11667 2.11666 h 2.116667 2.116667 v 1.0168 1.01679 l 0.172952,3.21654 0.172951,3.21654 h -2.289617 -2.28962 z m 8.669806,-12.76614 -0.0709,-6.41615 -2.050518,-0.0773 -2.050521,-0.0773 v -2.10554 -2.10553 h 4.101039 4.10104 v -2.11667 -2.11667 h 4.36563 4.36563 v -2.11666 -2.11667 h 8.59895 8.59896 v -4.23334 -4.23333 h 1.98438 1.98437 v 4.23333 4.23334 h 2.24896 2.24896 v 2.11667 2.11666 h 2.11667 2.11666 v 2.28642 2.28642 l -8.53281,-0.1036 -8.53281,-0.10361 -0.0729,4.16719 -0.0729,4.16718 h -2.10995 -2.10995 v -4.23333 -4.23333 H 120.65 118.53333 v 4.23333 4.23333 H 116.41666 114.3 v -4.23333 -4.23333 h -2.11667 -2.11667 v 2.10596 2.10597 l -2.18281,0.0768 -2.18281,0.0768 v 2.11667 2.11666 l 2.18281,0.0769 2.18281,0.0769 v 2.10596 2.10597 h -2.24896 -2.24896 v 2.11667 2.11666 h -1.97967 -1.97967 z M 88.63541,120.44732 v -4.23334 h 2.116667 2.116667 v -2.11666 -2.11667 h 2.248959 2.248958 v -2.11667 -2.11667 h 1.984375 1.984374 v 2.11667 2.11667 h -1.984374 -1.984375 v 2.11667 2.11666 h -2.248958 -2.248959 v 4.23334 4.23333 H 90.752077 88.63541 Z m 12.96458,-14.81667 v -2.11667 h 4.23334 4.23333 v -2.11667 -2.116662 H 120.65 131.23333 v 2.116662 2.11667 H 120.65 110.06666 v 2.11667 2.11666 h -4.23333 -4.23334 z"
         id="path344"
         inkscape:connector-curvature="0"
         sodipodi:nodetypes="ccccccccccccccccccccccccccccccccccccccccccccccccccccccccccccccccccccccccccccccccccccccccccccccccccccccccccccccccccccccccccccccccccccccccccccccccccccccccccccccccccccccccccccccccccccccccccccccccccccccccccccccccccccccccccccccccccccccccccccccccccccccccccccccccccccccccccccccccccccccccccccccc" />
      <path
         style="fill:#1f2f87;stroke-width:0.26458335"
         d="m 88.63541,178.12649 v -2.11667 h -2.116666 -2.116667 v -8.46667 -8.46667 h 2.116667 2.116666 v -2.11666 -2.11667 h 2.116667 2.116667 v 2.11667 2.11666 H 90.752077 88.63541 v 8.46667 8.46667 h 4.233334 4.233334 v 2.11667 2.11666 H 92.868744 88.63541 Z m 42.8625,0 v -2.11667 h -2.11666 -2.11667 v -2.11667 -2.11666 h -2.24896 -2.24896 v 2.11666 2.11667 H 114.3 105.83333 v -2.11667 -2.11666 h 8.46667 8.46666 v -2.11667 -2.11667 h 2.24896 2.24896 v -2.11667 -2.11666 h 2.11667 2.11666 v -4.23334 -4.23333 h 6.35 6.35 v 2.11667 2.11666 h 2.11667 2.11667 v 4.23334 4.23333 h -2.11667 -2.11667 v 4.23334 4.23333 h -2.11666 -2.11667 v 2.11667 2.11666 h -4.23333 -4.23334 z m 3.96875,-6.35 v -4.23334 h -1.98437 -1.98438 v 4.23334 4.23333 h 1.98438 1.98437 z m 4.49792,-8.59896 v -4.36563 h -2.24896 -2.24896 v 1.14909 1.14908 l 0.17296,3.21654 0.0889,3.21386 2.16001,0.003 h 2.07601 z m -42.597919,10.71562 v -2.11666 h 1.984375 1.984374 v 2.11666 2.11667 h -1.984374 -1.984375 z m -4.497917,-4.23333 v -2.11667 h 2.116667 2.116667 v 2.11667 2.11667 h -2.116667 -2.116667 z m 34.395836,-17.06563 v -1.98437 h 1.98437 1.98438 v 1.98437 1.98438 h -1.98438 -1.98437 z m -4.49792,-4.36562 V 146.1119 H 120.65 118.53333 v -2.11667 -2.11666 H 114.3 110.06666 v -2.11667 -2.11667 h 2.11667 2.11667 v -2.11666 -2.11667 h 2.11666 2.11667 v 2.11667 2.11666 h 10.71562 10.71563 v 2.11667 2.11667 h -2.24896 -2.24896 v 2.11666 2.11667 H 131.23333 127 v 2.11667 2.11666 h -2.11667 -2.11667 z m -29.897916,-4.23334 v -2.11666 H 90.752077 88.63541 v -2.11667 -2.11667 h -2.116666 -2.116667 v -6.35 -6.35 h 2.116667 2.116666 v 4.23334 4.23333 h 2.116667 2.116667 v 2.11667 2.11666 h 2.116667 2.116667 v 1.0168 1.01679 l 0.172952,3.21654 0.172951,3.21654 h -2.289617 -2.28962 z m 8.669806,-12.76614 -0.0709,-6.41615 -2.050518,-0.0773 -2.050521,-0.0773 v -2.10554 -2.10553 h 4.101039 4.10104 v -2.11667 -2.11667 h 4.36563 4.36563 v -2.11666 -2.11667 h 8.59895 8.59896 v -4.23334 -4.23333 h 1.98438 1.98437 v 4.23333 4.23334 h 2.24896 2.24896 v 2.11667 2.11666 h 2.11667 2.11666 v 2.113 2.113 l -8.53281,0.0698 -8.53281,0.0698 -0.0729,4.16719 -0.0729,4.16718 h -2.10995 -2.10995 v -4.23333 -4.23333 H 120.65 118.53333 v 4.23333 4.23333 H 116.41666 114.3 v -4.23333 -4.23333 h -2.11667 -2.11667 v 2.10596 2.10597 l -2.18281,0.0768 -2.18281,0.0768 v 2.11667 2.11666 l 2.18281,0.0769 2.18281,0.0769 v 2.10596 2.10597 h -2.24896 -2.24896 v 2.11667 2.11666 h -1.97967 -1.97967 z M 88.63541,120.44732 v -4.23334 h 2.116667 2.116667 v -2.11666 -2.11667 h 2.248959 2.248958 v -2.11667 -2.11667 h 1.984375 1.984374 v 2.11667 2.11667 h -1.984374 -1.984375 v 2.11667 2.11666 h -2.248958 -2.248959 v 4.23334 4.23333 H 90.752077 88.63541 Z m 12.96458,-14.81667 v -2.11667 h 4.23334 4.23333 v -2.11667 -2.116662 H 120.65 131.23333 v 2.116662 2.11667 H 120.65 110.06666 v 2.11667 2.11666 h -4.23333 -4.23334 z"
         id="path342"
         inkscape:connector-curvature="0"
         sodipodi:nodetypes="cccccccccccccccccccccccccccccccccccccccccccccccccccccccccccccccccccccccccccccccccccccccccccccccccccccccccccccccccccccccccccccccccccccccccccccccccccccccccccccccccccccccccccccccccccccccccccccccccccccccccccccccccccccccccccccccccccccccccccccccccccccccccccccccccccccccccccccccccccccccccccc" />
      <path
         style="fill:#500202;stroke-width:0.26458335"
         d="m 88.63541,178.12649 v -2.11667 h -2.116666 -2.116667 v -8.46667 -8.46667 h 2.116667 2.116666 v -2.11666 -2.11667 h 2.116667 2.116667 v 2.11667 2.11666 H 90.752077 88.63541 v 8.46667 8.46667 h 4.233334 4.233334 v 2.11667 2.11666 H 92.868744 88.63541 Z m 42.8625,0 v -2.11667 h -2.11666 -2.11667 v -1.0168 -1.01679 l -0.003,-3.26076 v -3.175 l 1.78595,0.003 2.18311,-0.003 v -4.49792 -4.23333 l 2.28345,0.003 h 1.95226 v -1.98437 -1.98438 h 4.36563 4.36562 v 2.11667 2.11666 h 2.11667 2.11667 v 4.23334 4.23333 h -2.11667 -2.11667 v 4.23334 4.23333 h -2.11666 -2.11667 v 2.11667 2.11666 h -4.23333 -4.23334 z m 3.96875,-6.35 v -4.23334 h -1.98437 -1.98438 v 4.23334 4.23333 h 1.98438 1.98437 z m 4.49792,-8.59896 v -4.36563 h -2.24896 l -1.98706,-0.003 v 1.05833 1.32292 3.175 l -4e-5,3.175 2.16001,0.003 h 2.07601 z m -42.597919,10.71562 v -2.11666 h 1.984375 1.984374 v 2.11666 2.11667 h -1.984374 -1.984375 z m -4.497917,-29.89792 v -2.11666 H 90.752077 88.63541 v -2.11667 -2.11667 h -2.116666 -2.116667 v -6.35 -6.35 h 2.116667 2.116666 v 4.23334 4.23333 h 2.116667 2.116667 v 2.11667 2.11666 h 2.116667 2.116667 v 1.0168 1.01679 l 0.172952,3.21654 0.172951,3.21654 h -2.289617 -2.28962 z m 25.664586,0 v -2.11666 H 114.3 110.06666 v -2.11667 -2.11667 h 2.11667 2.11667 v -2.11666 -2.11667 h 2.11666 2.11667 v 2.11667 2.11666 h 10.71562 10.71563 v 2.11667 2.11667 h -2.24896 -2.24896 v 2.11666 2.11667 H 127 118.53333 Z m -16.99478,-12.76614 -0.0709,-6.41615 -2.050518,-0.0773 -2.050521,-0.0773 v -2.10554 -2.10553 h 4.101039 4.10104 v -2.11667 -2.11667 h 4.36563 4.36563 v -2.11666 -2.11667 h 8.59895 8.59896 v -4.23334 -4.23333 h 1.98438 1.98437 v 4.23333 4.23334 h 2.24896 2.24896 v 2.11667 2.11666 h 2.11667 2.11666 v 2.113 2.113 l -8.53281,0.0698 -8.53281,0.0698 -0.0729,4.16719 -0.0729,4.16718 h -2.10995 -2.10995 v -4.23333 -4.23333 H 120.65 118.53333 v 4.23333 4.23333 H 116.41666 114.3 v -4.23333 -4.23333 h -2.11667 -2.11667 v 2.10596 2.10597 l -2.18281,0.0768 -2.18281,0.0768 v 2.11667 2.11666 l 2.18281,0.0769 2.18281,0.0769 v 2.10596 2.10597 h -2.24896 -2.24896 v 2.11667 2.11666 h -1.97967 -1.97967 z M 88.63541,120.44732 v -4.23334 h 2.116667 2.116667 v -2.11666 -2.11667 h 2.248959 2.248958 v -2.11667 -2.11667 h 1.984375 1.984374 v 2.11667 2.11667 h -1.984374 -1.984375 v 2.11667 2.11666 h -2.248958 -2.248959 v 4.23334 4.23333 H 90.752077 88.63541 Z m 12.96458,-14.81667 v -2.11667 h 4.23334 4.23333 v -2.11667 -2.116662 H 120.65 131.23333 v 2.116662 2.11667 H 120.65 110.06666 v 2.11667 2.11666 h -4.23333 -4.23334 z"
         id="path340"
         inkscape:connector-curvature="0"
         sodipodi:nodetypes="cccccccccccccccccccccccccccccccccccccccccccccccccccccccccccccccccccccccccccccccccccccccccccccccccccccccccccccccccccccccccccccccccccccccccccccccccccccccccccccccccccccccccccccccccccccccccccccccccccccccccccccccccccccccccccccccccccccccccccccccccccccccc" />
      <path
         style="fill:#000000;stroke-width:0.26458335"
         d="m 88.63541,178.12649 v -2.11667 h -2.116666 -2.116667 v -8.46667 -8.46667 h 2.116667 2.116666 v 8.46667 8.46667 h 4.233334 4.233334 v 2.11667 2.11666 H 92.868744 88.63541 Z m 42.8625,0 v -2.11667 h 2.11667 2.11667 v -4.23333 -4.23334 h 2.11666 2.11667 v -4.36562 -4.36563 h -2.24896 -2.24896 v 4.36563 4.36562 H 133.35 131.23333 v 4.23334 4.23333 h -1.98438 -1.98437 v -1.0168 -1.01679 l -0.003,-3.26076 v -3.175 l 1.78595,0.003 2.18311,-0.003 0,-4.49792 v -4.23333 c 1.05833,0 1.85205,0.007 2.28818,0.005 1.68057,-0.005 -0.52128,-0.002 -0.005,-0.002 h 1.95226 v -1.98437 -1.98438 h 4.36563 4.36562 v 2.11667 2.11666 h 2.11667 2.11667 v 4.23334 4.23333 h -2.11667 -2.11667 v 4.23334 4.23333 h -2.11666 -2.11667 v 2.11667 2.11666 h -4.23333 -4.23334 z m -34.131249,-4.23334 v -2.11666 h 1.984375 1.984374 v 2.11666 2.11667 H 99.351036 97.366661 Z M 88.63541,156.82753 v -1.98438 h 2.116667 2.116667 v 1.98438 1.98437 H 90.752077 88.63541 Z m 4.233334,-12.8323 v -2.11666 H 90.752077 88.63541 v -4.23334 -4.23333 h 2.116667 2.116667 v 2.11667 2.11666 h 2.116667 2.116667 v 4.23334 4.23333 h -2.116667 -2.116667 z m 25.664586,0 v -2.11666 H 114.3 110.06666 v -2.11667 -2.11667 h 2.11667 2.11667 v -2.11666 -2.11667 h 2.11666 2.11667 v 2.11667 2.11666 h 10.71562 10.71563 v 2.11667 2.11667 h -2.24896 -2.24896 v 2.11666 2.11667 H 127 118.53333 Z m -16.93334,-12.83229 v -6.48229 h -2.116662 -2.116667 v -1.98438 -1.98437 h 4.233329 4.23334 v -2.24896 -2.24896 h 4.23333 4.23334 v -2.11666 -2.11667 h 12.83229 12.83229 v 2.11667 2.11666 h 2.11667 2.11666 v 2.11667 2.11667 H 135.59895 127 v 4.23333 4.23333 h -2.11667 -2.11667 v -4.23333 -4.23333 H 120.65 118.53333 v 4.23333 4.23333 H 116.41666 114.3 v -4.23333 -4.23333 h -2.11667 -2.11667 v 2.11666 2.11667 h -2.24896 -2.24896 v 2.24896 2.24896 h 2.24896 2.24896 v 2.11666 2.11667 h -2.24896 -2.24896 v 2.11667 2.11666 h -1.98437 -1.98438 z"
         id="path338"
         inkscape:connector-curvature="0"
         sodipodi:nodetypes="cccccccccccccccccccccccccccccccccccccccccccccscccccccccccccccccccccccccccccccccccccccccccccccccccccccccccccccccccccccccccccccccccccccccccccccccccccccccccccccccccccccccccccccccccccccccccc" />
    </g>
  </g>
</svg>
